<svg width="34" height="20" viewBox="0 0 42 27" fill="none" xmlns="http://www.w3.org/2000/svg">
<path d="M22.215 23.23C22.1917 23.51 22.1567 23.8017 22.11 24.105C22.0633 24.4083 21.9817 24.6883 21.865 24.945C21.7483 25.225 21.5967 25.435 21.41 25.575C21.1533 25.8083 20.85 25.9367 20.5 25.96C20.1733 26.0767 19.8583 26.1117 19.555 26.065C19.2517 26.0183 18.9717 25.9367 18.715 25.82C18.3883 25.61 18.1433 25.365 17.98 25.085C17.84 24.7817 17.735 24.4667 17.665 24.14C17.595 23.8133 17.56 23.475 17.56 23.125C17.56 22.775 17.56 22.4483 17.56 22.145V19.415L17.525 14.06C17.525 13.6867 17.525 13.395 17.525 13.185C17.525 12.975 17.525 12.7883 17.525 12.625C17.525 12.4383 17.5133 12.24 17.49 12.03C17.49 11.7967 17.49 11.47 17.49 11.05C17.49 10.98 17.49 10.8633 17.49 10.7C17.5133 10.5133 17.5017 10.035 17.455 9.265C16.545 10.7817 15.7867 12.0067 15.18 12.94C14.5967 13.85 14.095 14.5617 13.675 15.075C13.2783 15.565 12.9283 15.9033 12.625 16.09C12.3217 16.2533 12.0067 16.3467 11.68 16.37C11.4933 16.3933 11.3067 16.3583 11.12 16.265C10.9333 16.1717 10.7467 16.055 10.56 15.915C10.3967 15.775 10.2333 15.635 10.07 15.495C9.93 15.3317 9.81333 15.18 9.72 15.04C9.16 14.34 8.53 13.5 7.83 12.52C7.13 11.54 6.40667 10.35 5.66 8.95C5.66 8.97333 5.64833 9.35833 5.625 10.105C5.625 10.8517 5.625 11.785 5.625 12.905C5.625 14.0017 5.61333 15.1917 5.59 16.475C5.59 17.735 5.57833 18.9133 5.555 20.01C5.555 21.1067 5.54333 22.0283 5.52 22.775C5.49667 23.4983 5.47333 23.86 5.45 23.86C5.45 24.2567 5.35667 24.63 5.17 24.98C4.98333 25.3067 4.72667 25.575 4.4 25.785C4.09667 25.995 3.735 26.1117 3.315 26.135C2.895 26.1583 2.44 26.0417 1.95 25.785C1.64667 25.5983 1.41333 25.33 1.25 24.98C1.11 24.63 1.01667 24.3033 0.97 24C0.946667 23.6733 0.923333 23.3583 0.9 23.055C0.9 22.7517 0.9 22.4367 0.9 22.11L0.935 19.38L0.97 13.99V9.3C0.97 7.27 1.04 5.275 1.18 3.315C1.18 3.05833 1.20333 2.825 1.25 2.615C1.32 2.38167 1.40167 2.16 1.495 1.95C1.68167 1.57667 1.92667 1.29667 2.23 1.11C2.58 0.899998 2.95333 0.794998 3.35 0.794998C3.51333 0.794998 3.665 0.806665 3.805 0.83C3.96833 0.83 4.12 0.841666 4.26 0.864999C4.72667 0.958333 5.12333 1.23833 5.45 1.705C5.8 2.14833 6.12667 2.53333 6.43 2.86C6.61667 3.07 6.815 3.32667 7.025 3.63C7.235 3.93333 7.445 4.24833 7.655 4.575C7.865 4.90167 8.06333 5.21667 8.25 5.52C8.43667 5.82333 8.6 6.09167 8.74 6.325C9.34667 7.305 9.88333 8.20333 10.35 9.02C10.84 9.83667 11.295 10.5367 11.715 11.12C11.785 11.05 11.8667 10.9567 11.96 10.84C12.0533 10.7 12.1467 10.56 12.24 10.42C12.3567 10.2567 12.45 10.105 12.52 9.965C12.6133 9.825 12.6833 9.70833 12.73 9.615C12.9633 9.24167 13.1967 8.88 13.43 8.53C13.6633 8.15667 13.9083 7.77167 14.165 7.375C14.445 6.955 14.725 6.5 15.005 6.01C15.3083 5.52 15.6583 4.96 16.055 4.33C16.2183 4.05 16.4283 3.71167 16.685 3.315C16.9417 2.91833 17.2333 2.53333 17.56 2.16C17.8867 1.78667 18.225 1.47166 18.575 1.215C18.9483 0.934998 19.3217 0.794998 19.695 0.794998C19.8817 0.794998 20.045 0.806665 20.185 0.83C20.325 0.83 20.465 0.841666 20.605 0.864999C20.885 0.888332 21.1533 1.01667 21.41 1.25C21.5967 1.43667 21.7367 1.635 21.83 1.845C21.9233 2.14833 21.9817 2.405 22.005 2.615C22.0283 2.77833 22.04 2.93 22.04 3.07C22.0633 3.21 22.075 3.35 22.075 3.49C22.075 4.79667 22.0867 6.09167 22.11 7.375C22.1333 8.65833 22.145 9.95333 22.145 11.26C22.145 12.8467 22.145 14.48 22.145 16.16C22.1683 17.84 22.18 19.4733 22.18 21.06C22.18 21.3867 22.1917 21.7367 22.215 22.11C22.2383 22.4833 22.2383 22.8567 22.215 23.23ZM29.51 5.17L29.44 10.665H30.84C31.7967 10.6417 32.6484 10.63 33.395 10.63C34.1417 10.63 34.97 10.6417 35.88 10.665H36.055C36.335 10.665 36.6034 10.6767 36.86 10.7C37.14 10.7 37.4084 10.7 37.665 10.7C37.945 10.7233 38.2134 10.77 38.47 10.84C38.7267 10.8867 38.9834 10.945 39.24 11.015C39.6367 11.155 39.9634 11.365 40.22 11.645C40.4534 11.9483 40.57 12.2867 40.57 12.66C40.57 12.7767 40.57 12.9167 40.57 13.08C40.57 13.22 40.5467 13.3483 40.5 13.465C40.4534 13.7217 40.3017 13.955 40.045 14.165C39.9284 14.3283 39.7067 14.445 39.38 14.515C39.0767 14.6083 38.7734 14.6667 38.47 14.69C38.1434 14.76 37.8167 14.795 37.49 14.795H35.845L29.37 14.83L29.3 21.69L36.265 21.76H37.91C38.0967 21.76 38.2717 21.76 38.435 21.76C38.5984 21.76 38.75 21.7717 38.89 21.795C39.0767 21.8417 39.24 21.8767 39.38 21.9C39.5434 21.9 39.695 21.9233 39.835 21.97C40.115 22.0633 40.3484 22.1917 40.535 22.355C40.7684 22.5883 40.92 22.8333 40.99 23.09C41.0134 23.2067 41.025 23.335 41.025 23.475C41.0484 23.5917 41.0484 23.72 41.025 23.86C41.025 24.2333 40.9084 24.5717 40.675 24.875C40.395 25.2017 40.0684 25.4117 39.695 25.505C39.205 25.715 38.6684 25.82 38.085 25.82C37.8284 25.8433 37.56 25.855 37.28 25.855C37 25.855 36.7317 25.8667 36.475 25.89H36.265C34.445 25.9367 32.555 25.9367 30.595 25.89C30.1284 25.89 29.755 25.8783 29.475 25.855C29.195 25.855 28.9384 25.855 28.705 25.855C28.495 25.855 28.2734 25.855 28.04 25.855C27.8067 25.855 27.5034 25.855 27.13 25.855C26.5934 25.9017 26.15 25.8083 25.8 25.575C25.5434 25.4117 25.345 25.19 25.205 24.91C25.135 24.84 25.1 24.77 25.1 24.7C25.0767 24.6533 25.0534 24.6183 25.03 24.595C25.0067 24.5717 24.9834 24.5367 24.96 24.49C24.9134 24.3733 24.8784 24.2567 24.855 24.14C24.8317 24 24.82 23.8717 24.82 23.755C24.7967 23.6383 24.7734 23.5217 24.75 23.405C24.75 23.2883 24.7384 23.1717 24.715 23.055V22.495C24.715 22.4017 24.715 22.3083 24.715 22.215C24.7384 22.1217 24.75 22.0283 24.75 21.935V19.205L24.82 14.165V9.51C24.82 8.67 24.82 7.92333 24.82 7.27C24.8434 6.61667 24.8667 5.905 24.89 5.135V4.96C24.9134 4.70333 24.925 4.47 24.925 4.26C24.9484 4.02667 24.96 3.79333 24.96 3.56C24.9834 3.09333 25.1117 2.63833 25.345 2.195C25.4384 2.00833 25.5317 1.845 25.625 1.705C25.7417 1.565 25.8934 1.44833 26.08 1.355C26.43 1.145 26.7917 1.04 27.165 1.04C27.3517 1.04 27.4917 1.05167 27.585 1.075V1.04C28.005 1.04 28.3434 1.04 28.6 1.04C28.8567 1.04 29.1017 1.04 29.335 1.04C29.5917 1.04 29.86 1.04 30.14 1.04C30.42 1.01667 30.805 1.005 31.295 1.005C32.2284 0.981666 33.115 0.97 33.955 0.97C34.795 0.97 35.6584 0.981666 36.545 1.005H36.685C36.9417 1.02833 37.21 1.04 37.49 1.04C37.77 1.04 38.0384 1.05167 38.295 1.075C38.5517 1.075 38.8084 1.11 39.065 1.18C39.3217 1.22667 39.5784 1.29667 39.835 1.39C40.2317 1.50667 40.5584 1.705 40.815 1.985C41.025 2.31167 41.13 2.63833 41.13 2.965C41.13 3.105 41.13 3.245 41.13 3.385C41.13 3.50167 41.1067 3.61833 41.06 3.735C41.0367 3.96833 40.8967 4.21333 40.64 4.47C40.5467 4.51667 40.4417 4.575 40.325 4.645C40.2317 4.715 40.115 4.77333 39.975 4.82C39.835 4.86667 39.6834 4.90167 39.52 4.925C39.38 4.925 39.24 4.93667 39.1 4.96C38.9134 5.00667 38.7384 5.03 38.575 5.03C38.435 5.03 38.2717 5.03 38.085 5.03H36.51L29.51 5.065V5.17Z" fill="black"/>
</svg>
